<svg width="451" height="176" viewBox="0 0 451 176" fill="none" xmlns="http://www.w3.org/2000/svg">
<rect y="173" width="451" height="3" fill="#121212"/>
<rect x="6" y="6" width="439" height="164" fill="#412D1D"/>
<rect x="6" y="3" width="439" height="3" fill="#563E2B"/>
<rect x="6" y="3" width="170" height="2.99999" transform="rotate(90 6 3)" fill="#563E2B"/>
<rect x="6" y="170" width="442" height="3" fill="#2A1E14"/>
<rect x="445" y="170" width="167" height="3.00001" transform="rotate(-90 445 170)" fill="#2A1E14"/>
<rect y="3" width="3" height="170" fill="#121212"/>
<rect x="448" y="3" width="448" height="3.00004" transform="rotate(180 448 3)" fill="#121212"/>
<rect x="448" y="173" width="173" height="3.00001" transform="rotate(-90 448 173)" fill="#121212"/>
<path d="M17.856 28L22.848 16.8H25.408L30.416 28H27.696L23.6 18.112H24.624L20.512 28H17.856ZM20.352 25.6L21.04 23.632H26.8L27.504 25.6H20.352ZM31.578 28V16.8H36.362C37.9193 16.8 39.13 17.1627 39.994 17.888C40.858 18.6027 41.29 19.5947 41.29 20.864C41.29 21.696 41.0927 22.416 40.698 23.024C40.3033 23.6213 39.7433 24.08 39.018 24.4C38.2927 24.72 37.4287 24.88 36.426 24.88H33.018L34.17 23.744V28H31.578ZM38.698 28L35.898 23.936H38.666L41.498 28H38.698ZM34.17 24.032L33.018 22.816H36.282C37.082 22.816 37.6793 22.6453 38.074 22.304C38.4687 21.952 38.666 21.472 38.666 20.864C38.666 20.2453 38.4687 19.7653 38.074 19.424C37.6793 19.0827 37.082 18.912 36.282 18.912H33.018L34.17 17.68V24.032ZM43.3436 28V16.8H51.8076V18.88H45.9196V25.92H52.0156V28H43.3436ZM45.7276 23.328V21.312H51.1196V23.328H45.7276ZM52.606 28L57.598 16.8H60.158L65.166 28H62.446L58.35 18.112H59.374L55.262 28H52.606ZM55.102 25.6L55.79 23.632H61.55L62.254 25.6H55.102ZM70.008 28.192C69.112 28.192 68.2533 28.0747 67.432 27.84C66.6107 27.5947 65.9493 27.28 65.448 26.896L66.328 24.944C66.808 25.2853 67.3733 25.568 68.024 25.792C68.6853 26.0053 69.352 26.112 70.024 26.112C70.536 26.112 70.9467 26.064 71.256 25.968C71.576 25.8613 71.8107 25.7173 71.96 25.536C72.1093 25.3547 72.184 25.1467 72.184 24.912C72.184 24.6133 72.0667 24.3787 71.832 24.208C71.5973 24.0267 71.288 23.8827 70.904 23.776C70.52 23.6587 70.0933 23.552 69.624 23.456C69.1653 23.3493 68.7013 23.2213 68.232 23.072C67.7733 22.9227 67.352 22.7307 66.968 22.496C66.584 22.2613 66.2693 21.952 66.024 21.568C65.7893 21.184 65.672 20.6933 65.672 20.096C65.672 19.456 65.8427 18.8747 66.184 18.352C66.536 17.8187 67.0587 17.3973 67.752 17.088C68.456 16.768 69.336 16.608 70.392 16.608C71.096 16.608 71.7893 16.6933 72.472 16.864C73.1547 17.024 73.7573 17.2693 74.28 17.6L73.48 19.568C72.9573 19.2693 72.4347 19.0507 71.912 18.912C71.3893 18.7627 70.8773 18.688 70.376 18.688C69.8747 18.688 69.464 18.7467 69.144 18.864C68.824 18.9813 68.5947 19.136 68.456 19.328C68.3173 19.5093 68.248 19.7227 68.248 19.968C68.248 20.256 68.3653 20.4907 68.6 20.672C68.8347 20.8427 69.144 20.9813 69.528 21.088C69.912 21.1947 70.3333 21.3013 70.792 21.408C71.2613 21.5147 71.7253 21.6373 72.184 21.776C72.6533 21.9147 73.08 22.1013 73.464 22.336C73.848 22.5707 74.1573 22.88 74.392 23.264C74.6373 23.648 74.76 24.1333 74.76 24.72C74.76 25.3493 74.584 25.9253 74.232 26.448C73.88 26.9707 73.352 27.392 72.648 27.712C71.9547 28.032 71.0747 28.192 70.008 28.192ZM77.221 22.384C76.7943 22.384 76.4263 22.24 76.117 21.952C75.8183 21.6533 75.669 21.2747 75.669 20.816C75.669 20.3573 75.8183 19.9893 76.117 19.712C76.4263 19.424 76.7943 19.28 77.221 19.28C77.6583 19.28 78.0263 19.424 78.325 19.712C78.6237 19.9893 78.773 20.3573 78.773 20.816C78.773 21.2747 78.6237 21.6533 78.325 21.952C78.0263 22.24 77.6583 22.384 77.221 22.384ZM77.221 28.128C76.7943 28.128 76.4263 27.984 76.117 27.696C75.8183 27.3973 75.669 27.0187 75.669 26.56C75.669 26.1013 75.8183 25.7333 76.117 25.456C76.4263 25.168 76.7943 25.024 77.221 25.024C77.6583 25.024 78.0263 25.168 78.325 25.456C78.6237 25.7333 78.773 26.1013 78.773 26.56C78.773 27.0187 78.6237 27.3973 78.325 27.696C78.0263 27.984 77.6583 28.128 77.221 28.128ZM86.1957 28V17.76L87.3158 18.88H83.9558V16.8H88.7878V28H86.1957Z" fill="#836650" fill-opacity="0.64"/>
<path d="M144.688 28.192C143.824 28.192 143.019 28.0533 142.272 27.776C141.536 27.488 140.896 27.0827 140.352 26.56C139.808 26.0373 139.381 25.424 139.072 24.72C138.773 24.016 138.624 23.2427 138.624 22.4C138.624 21.5573 138.773 20.784 139.072 20.08C139.381 19.376 139.808 18.7627 140.352 18.24C140.907 17.7173 141.552 17.3173 142.288 17.04C143.024 16.752 143.829 16.608 144.704 16.608C145.675 16.608 146.549 16.7787 147.328 17.12C148.117 17.4507 148.779 17.9413 149.312 18.592L147.648 20.128C147.264 19.6907 146.837 19.3653 146.368 19.152C145.899 18.928 145.387 18.816 144.832 18.816C144.309 18.816 143.829 18.9013 143.392 19.072C142.955 19.2427 142.576 19.488 142.256 19.808C141.936 20.128 141.685 20.5067 141.504 20.944C141.333 21.3813 141.248 21.8667 141.248 22.4C141.248 22.9333 141.333 23.4187 141.504 23.856C141.685 24.2933 141.936 24.672 142.256 24.992C142.576 25.312 142.955 25.5573 143.392 25.728C143.829 25.8987 144.309 25.984 144.832 25.984C145.387 25.984 145.899 25.8773 146.368 25.664C146.837 25.44 147.264 25.104 147.648 24.656L149.312 26.192C148.779 26.8427 148.117 27.3387 147.328 27.68C146.549 28.0213 145.669 28.192 144.688 28.192ZM158.586 28V16.8H161.178V28H158.586ZM150.906 28V16.8H153.498V28H150.906ZM153.306 23.408V21.216H158.778V23.408H153.306ZM168.804 28.192C167.215 28.192 165.972 27.7493 165.076 26.864C164.18 25.9787 163.732 24.7147 163.732 23.072V16.8H166.324V22.976C166.324 24.0427 166.543 24.8107 166.98 25.28C167.417 25.7493 168.031 25.984 168.82 25.984C169.609 25.984 170.223 25.7493 170.66 25.28C171.097 24.8107 171.316 24.0427 171.316 22.976V16.8H173.876V23.072C173.876 24.7147 173.428 25.9787 172.532 26.864C171.636 27.7493 170.393 28.192 168.804 28.192ZM176.437 28V16.8H178.581L185.189 24.864H184.149V16.8H186.709V28H184.581L177.957 19.936H178.997V28H176.437ZM191.679 25.44L191.535 22.448L196.895 16.8H199.775L194.943 22L193.503 23.536L191.679 25.44ZM189.359 28V16.8H191.935V28H189.359ZM197.023 28L193.039 23.12L194.735 21.28L200.047 28H197.023ZM204.649 28.192C203.753 28.192 202.894 28.0747 202.073 27.84C201.251 27.5947 200.59 27.28 200.089 26.896L200.969 24.944C201.449 25.2853 202.014 25.568 202.665 25.792C203.326 26.0053 203.993 26.112 204.665 26.112C205.177 26.112 205.587 26.064 205.897 25.968C206.217 25.8613 206.451 25.7173 206.601 25.536C206.75 25.3547 206.825 25.1467 206.825 24.912C206.825 24.6133 206.707 24.3787 206.473 24.208C206.238 24.0267 205.929 23.8827 205.545 23.776C205.161 23.6587 204.734 23.552 204.265 23.456C203.806 23.3493 203.342 23.2213 202.873 23.072C202.414 22.9227 201.993 22.7307 201.609 22.496C201.225 22.2613 200.91 21.952 200.665 21.568C200.43 21.184 200.313 20.6933 200.313 20.096C200.313 19.456 200.483 18.8747 200.825 18.352C201.177 17.8187 201.699 17.3973 202.393 17.088C203.097 16.768 203.977 16.608 205.033 16.608C205.737 16.608 206.43 16.6933 207.113 16.864C207.795 17.024 208.398 17.2693 208.921 17.6L208.121 19.568C207.598 19.2693 207.075 19.0507 206.553 18.912C206.03 18.7627 205.518 18.688 205.017 18.688C204.515 18.688 204.105 18.7467 203.785 18.864C203.465 18.9813 203.235 19.136 203.097 19.328C202.958 19.5093 202.889 19.7227 202.889 19.968C202.889 20.256 203.006 20.4907 203.241 20.672C203.475 20.8427 203.785 20.9813 204.169 21.088C204.553 21.1947 204.974 21.3013 205.433 21.408C205.902 21.5147 206.366 21.6373 206.825 21.776C207.294 21.9147 207.721 22.1013 208.105 22.336C208.489 22.5707 208.798 22.88 209.033 23.264C209.278 23.648 209.401 24.1333 209.401 24.72C209.401 25.3493 209.225 25.9253 208.873 26.448C208.521 26.9707 207.993 27.392 207.289 27.712C206.595 28.032 205.715 28.192 204.649 28.192ZM211.862 22.384C211.435 22.384 211.067 22.24 210.758 21.952C210.459 21.6533 210.31 21.2747 210.31 20.816C210.31 20.3573 210.459 19.9893 210.758 19.712C211.067 19.424 211.435 19.28 211.862 19.28C212.299 19.28 212.667 19.424 212.966 19.712C213.264 19.9893 213.414 20.3573 213.414 20.816C213.414 21.2747 213.264 21.6533 212.966 21.952C212.667 22.24 212.299 22.384 211.862 22.384ZM211.862 28.128C211.435 28.128 211.067 27.984 210.758 27.696C210.459 27.3973 210.31 27.0187 210.31 26.56C210.31 26.1013 210.459 25.7333 210.758 25.456C211.067 25.168 211.435 25.024 211.862 25.024C212.299 25.024 212.667 25.168 212.966 25.456C213.264 25.7333 213.414 26.1013 213.414 26.56C213.414 27.0187 213.264 27.3973 212.966 27.696C212.667 27.984 212.299 28.128 211.862 28.128ZM220.836 28V17.76L221.956 18.88H218.596V16.8H223.428V28H220.836ZM230.014 28.192C229.075 28.192 228.254 28.0533 227.55 27.776C226.846 27.488 226.297 27.088 225.902 26.576C225.507 26.0533 225.31 25.4453 225.31 24.752C225.31 24.0587 225.502 23.472 225.886 22.992C226.281 22.5013 226.83 22.1333 227.534 21.888C228.238 21.632 229.065 21.504 230.014 21.504C230.974 21.504 231.806 21.632 232.51 21.888C233.225 22.1333 233.774 22.5013 234.158 22.992C234.553 23.472 234.75 24.0587 234.75 24.752C234.75 25.4453 234.553 26.0533 234.158 26.576C233.763 27.088 233.209 27.488 232.494 27.776C231.79 28.0533 230.963 28.192 230.014 28.192ZM230.014 26.288C230.665 26.288 231.177 26.144 231.55 25.856C231.934 25.568 232.126 25.1733 232.126 24.672C232.126 24.1707 231.934 23.7813 231.55 23.504C231.177 23.216 230.665 23.072 230.014 23.072C229.374 23.072 228.867 23.216 228.494 23.504C228.121 23.7813 227.934 24.1707 227.934 24.672C227.934 25.1733 228.121 25.568 228.494 25.856C228.867 26.144 229.374 26.288 230.014 26.288ZM230.014 21.296C230.558 21.296 230.985 21.1733 231.294 20.928C231.614 20.6827 231.774 20.3467 231.774 19.92C231.774 19.472 231.609 19.1253 231.278 18.88C230.958 18.6347 230.537 18.512 230.014 18.512C229.502 18.512 229.086 18.6347 228.766 18.88C228.446 19.1253 228.286 19.472 228.286 19.92C228.286 20.3467 228.441 20.6827 228.75 20.928C229.059 21.1733 229.481 21.296 230.014 21.296ZM230.014 22.816C229.15 22.816 228.393 22.6987 227.742 22.464C227.102 22.2293 226.601 21.888 226.238 21.44C225.886 20.9813 225.71 20.4373 225.71 19.808C225.71 19.1467 225.891 18.5813 226.254 18.112C226.617 17.632 227.123 17.264 227.774 17.008C228.425 16.7413 229.171 16.608 230.014 16.608C230.878 16.608 231.63 16.7413 232.27 17.008C232.921 17.264 233.427 17.632 233.79 18.112C234.163 18.5813 234.35 19.1467 234.35 19.808C234.35 20.4373 234.169 20.9813 233.806 21.44C233.454 21.888 232.953 22.2293 232.302 22.464C231.651 22.6987 230.889 22.816 230.014 22.816Z" fill="#836650" fill-opacity="0.64"/>
<line x1="18.5" y1="37.5" x2="432.5" y2="37.5" stroke="#836650" stroke-opacity="0.64" stroke-linecap="round"/>
<path d="M19.328 66V54.8H24.112C25.6693 54.8 26.88 55.1627 27.744 55.888C28.608 56.6027 29.04 57.5947 29.04 58.864C29.04 59.696 28.8427 60.416 28.448 61.024C28.0533 61.6213 27.4933 62.08 26.768 62.4C26.0427 62.72 25.1787 62.88 24.176 62.88H20.768L21.92 61.744V66H19.328ZM26.448 66L23.648 61.936H26.416L29.248 66H26.448ZM21.92 62.032L20.768 60.816H24.032C24.832 60.816 25.4293 60.6453 25.824 60.304C26.2187 59.952 26.416 59.472 26.416 58.864C26.416 58.2453 26.2187 57.7653 25.824 57.424C25.4293 57.0827 24.832 56.912 24.032 56.912H20.768L21.92 55.68V62.032ZM30.9976 66V56.8H38.2296V58.736H33.4936V64.064H38.4056V66H30.9976ZM33.2376 62.256V60.416H37.6856V62.256H33.2376ZM44.8076 66.176C43.7836 66.176 42.877 65.9733 42.0876 65.568C41.2983 65.152 40.6796 64.5813 40.2316 63.856C39.7943 63.1307 39.5756 62.3147 39.5756 61.408C39.5756 60.48 39.7996 59.6587 40.2476 58.944C40.6956 58.2293 41.3143 57.664 42.1036 57.248C42.893 56.832 43.789 56.624 44.7916 56.624C45.6876 56.624 46.4663 56.7627 47.1276 57.04C47.7996 57.3067 48.3596 57.7173 48.8076 58.272L47.1436 59.76C46.8343 59.3973 46.4823 59.1307 46.0876 58.96C45.7036 58.7787 45.2823 58.688 44.8236 58.688C44.301 58.688 43.837 58.8053 43.4316 59.04C43.0263 59.264 42.7063 59.5787 42.4716 59.984C42.237 60.3893 42.1196 60.864 42.1196 61.408C42.1196 61.9307 42.237 62.4 42.4716 62.816C42.7063 63.2213 43.0263 63.5413 43.4316 63.776C43.837 64 44.3116 64.112 44.8556 64.112C45.3036 64.112 45.709 64.0427 46.0716 63.904C46.445 63.7653 46.813 63.5573 47.1756 63.28L48.5996 65.008C48.2583 65.2533 47.8743 65.4667 47.4476 65.648C47.0316 65.8187 46.5943 65.9467 46.1356 66.032C45.6876 66.128 45.245 66.176 44.8076 66.176ZM46.2956 65.04V61.28H48.5996V65.008L46.2956 65.04ZM50.7945 66V56.8H53.3225V66H50.7945ZM60.2593 66.176C59.2673 66.176 58.3819 65.9733 57.6033 65.568C56.8246 65.152 56.2113 64.5813 55.7633 63.856C55.3153 63.1307 55.0913 62.3093 55.0913 61.392C55.0913 60.4747 55.3153 59.6587 55.7633 58.944C56.2113 58.2293 56.8246 57.664 57.6033 57.248C58.3819 56.832 59.2673 56.624 60.2593 56.624C61.2513 56.624 62.1366 56.832 62.9153 57.248C63.6939 57.664 64.3073 58.2293 64.7553 58.944C65.2033 59.6587 65.4273 60.4747 65.4273 61.392C65.4273 62.3093 65.2033 63.1307 64.7553 63.856C64.3073 64.5813 63.6939 65.152 62.9153 65.568C62.1366 65.9733 61.2513 66.176 60.2593 66.176ZM60.2593 64.112C60.7713 64.112 61.2193 64 61.6033 63.776C61.9979 63.5413 62.3073 63.216 62.5312 62.8C62.7553 62.384 62.8673 61.92 62.8673 61.408C62.8673 60.8747 62.7553 60.4053 62.5312 60C62.3073 59.5947 61.9979 59.2747 61.6033 59.04C61.2193 58.8053 60.7713 58.688 60.2593 58.688C59.7579 58.688 59.3099 58.8053 58.9153 59.04C58.5206 59.2747 58.2059 59.5947 57.9713 60C57.7473 60.4053 57.6353 60.8693 57.6353 61.392C57.6353 61.9147 57.7473 62.384 57.9713 62.8C58.2059 63.216 58.5206 63.5413 58.9153 63.776C59.3099 64 59.7579 64.112 60.2593 64.112ZM67.2164 66V56.8H69.2964L74.4164 63.024H73.5684V56.8H76.0164V66H73.9364L68.7364 59.776H69.6644V66H67.2164ZM83.0133 66V56.8H85.0933L90.2133 63.024H89.3653V56.8H91.8133V66H89.7333L84.5333 59.776H85.4613V66H83.0133ZM92.9029 66L97.0309 56.8H99.5269L103.671 66H101.175L97.8629 58.016H98.7109L95.3509 66H92.9029ZM95.1589 64.176L95.8149 62.352H100.359L101.015 64.176H95.1589ZM104.763 66V56.8H106.875L110.683 62.992H109.659L113.387 56.8H115.515L115.547 66H113.179L113.163 60.4H113.515L110.699 65.024H109.563L106.651 60.4H107.115V66H104.763ZM117.998 66V56.8H125.23V58.736H120.494V64.064H125.406V66H117.998ZM120.238 62.256V60.416H124.686V62.256H120.238ZM128.065 60.384C127.638 60.384 127.27 60.24 126.961 59.952C126.662 59.6533 126.513 59.2747 126.513 58.816C126.513 58.3573 126.662 57.9893 126.961 57.712C127.27 57.424 127.638 57.28 128.065 57.28C128.502 57.28 128.87 57.424 129.169 57.712C129.467 57.9893 129.617 58.3573 129.617 58.816C129.617 59.2747 129.467 59.6533 129.169 59.952C128.87 60.24 128.502 60.384 128.065 60.384ZM128.065 66.128C127.638 66.128 127.27 65.984 126.961 65.696C126.662 65.3973 126.513 65.0187 126.513 64.56C126.513 64.1013 126.662 63.7333 126.961 63.456C127.27 63.168 127.638 63.024 128.065 63.024C128.502 63.024 128.87 63.168 129.169 63.456C129.467 63.7333 129.617 64.1013 129.617 64.56C129.617 65.0187 129.467 65.3973 129.169 65.696C128.87 65.984 128.502 66.128 128.065 66.128Z" fill="#D29F78"/>
<path d="M25.328 94V82.8H27.472L34.08 90.864H33.04V82.8H35.6V94H33.472L26.848 85.936H27.888V94H25.328ZM36.7779 94L41.7699 82.8H44.3299L49.3379 94H46.6179L42.5219 84.112H43.5459L39.4339 94H36.7779ZM39.2739 91.6L39.9619 89.632H45.7219L46.4259 91.6H39.2739ZM50.4999 94V82.8H52.6439L57.4119 90.704H56.2759L60.9639 82.8H63.0919L63.1239 94H60.6919L60.6759 86.528H61.1239L57.3799 92.816H56.2119L52.3879 86.528H52.9319V94H50.4999ZM65.7811 94V82.8H74.2451V84.88H68.3571V91.92H74.4531V94H65.7811ZM68.1651 89.328V87.312H73.5571V89.328H68.1651ZM77.4398 94.128C77.0131 94.128 76.6451 93.984 76.3358 93.696C76.0371 93.3973 75.8878 93.0187 75.8878 92.56C75.8878 92.1013 76.0371 91.7333 76.3358 91.456C76.6451 91.168 77.0131 91.024 77.4398 91.024C77.8771 91.024 78.2451 91.168 78.5438 91.456C78.8424 91.7333 78.9918 92.1013 78.9918 92.56C78.9918 93.0187 78.8424 93.3973 78.5438 93.696C78.2451 93.984 77.8771 94.128 77.4398 94.128ZM86.1585 94.128C85.7318 94.128 85.3638 93.984 85.0545 93.696C84.7558 93.3973 84.6065 93.0187 84.6065 92.56C84.6065 92.1013 84.7558 91.7333 85.0545 91.456C85.3638 91.168 85.7318 91.024 86.1585 91.024C86.5958 91.024 86.9638 91.168 87.2625 91.456C87.5612 91.7333 87.7105 92.1013 87.7105 92.56C87.7105 93.0187 87.5612 93.3973 87.2625 93.696C86.9638 93.984 86.5958 94.128 86.1585 94.128ZM94.8773 94.128C94.4506 94.128 94.0826 93.984 93.7733 93.696C93.4746 93.3973 93.3253 93.0187 93.3253 92.56C93.3253 92.1013 93.4746 91.7333 93.7733 91.456C94.0826 91.168 94.4506 91.024 94.8773 91.024C95.3146 91.024 95.6826 91.168 95.9813 91.456C96.2799 91.7333 96.4293 92.1013 96.4293 92.56C96.4293 93.0187 96.2799 93.3973 95.9813 93.696C95.6826 93.984 95.3146 94.128 94.8773 94.128Z" fill="#D29F78" fill-opacity="0.16"/>
<rect x="216" y="102" width="28" height="2" transform="rotate(-90 216 102)" fill="#563E2B"/>
<rect x="18" y="102" width="28" height="2" transform="rotate(-90 18 102)" fill="#563E2B"/>
<rect x="218" y="74" width="200" height="2.00001" transform="rotate(180 218 74)" fill="#563E2B"/>
<rect x="218" y="104" width="200" height="2.00001" transform="rotate(180 218 104)" fill="#563E2B"/>
<path d="M240.328 94V82.8H242.472L249.08 90.864H248.04V82.8H250.6V94H248.472L241.848 85.936H242.888V94H240.328ZM251.778 94L256.77 82.8H259.33L264.338 94H261.618L257.522 84.112H258.546L254.434 94H251.778ZM254.274 91.6L254.962 89.632H260.722L261.426 91.6H254.274ZM265.5 94V82.8H267.644L272.412 90.704H271.276L275.964 82.8H278.092L278.124 94H275.692L275.676 86.528H276.124L272.38 92.816H271.212L267.388 86.528H267.932V94H265.5ZM280.781 94V82.8H289.245V84.88H283.357V91.92H289.453V94H280.781ZM283.165 89.328V87.312H288.557V89.328H283.165ZM292.44 94.128C292.013 94.128 291.645 93.984 291.336 93.696C291.037 93.3973 290.888 93.0187 290.888 92.56C290.888 92.1013 291.037 91.7333 291.336 91.456C291.645 91.168 292.013 91.024 292.44 91.024C292.877 91.024 293.245 91.168 293.544 91.456C293.842 91.7333 293.992 92.1013 293.992 92.56C293.992 93.0187 293.842 93.3973 293.544 93.696C293.245 93.984 292.877 94.128 292.44 94.128ZM301.159 94.128C300.732 94.128 300.364 93.984 300.055 93.696C299.756 93.3973 299.607 93.0187 299.607 92.56C299.607 92.1013 299.756 91.7333 300.055 91.456C300.364 91.168 300.732 91.024 301.159 91.024C301.596 91.024 301.964 91.168 302.263 91.456C302.561 91.7333 302.711 92.1013 302.711 92.56C302.711 93.0187 302.561 93.3973 302.263 93.696C301.964 93.984 301.596 94.128 301.159 94.128ZM309.877 94.128C309.451 94.128 309.083 93.984 308.773 93.696C308.475 93.3973 308.325 93.0187 308.325 92.56C308.325 92.1013 308.475 91.7333 308.773 91.456C309.083 91.168 309.451 91.024 309.877 91.024C310.315 91.024 310.683 91.168 310.981 91.456C311.28 91.7333 311.429 92.1013 311.429 92.56C311.429 93.0187 311.28 93.3973 310.981 93.696C310.683 93.984 310.315 94.128 309.877 94.128Z" fill="#D29F78" fill-opacity="0.16"/>
<path d="M234.328 66V54.8H239.176C240.179 54.8 241.043 54.9653 241.768 55.296C242.493 55.616 243.053 56.08 243.448 56.688C243.843 57.296 244.04 58.0213 244.04 58.864C244.04 59.696 243.843 60.416 243.448 61.024C243.053 61.632 242.493 62.1013 241.768 62.432C241.043 62.752 240.179 62.912 239.176 62.912H235.768L236.92 61.744V66H234.328ZM236.92 62.032L235.768 60.8H239.032C239.832 60.8 240.429 60.6293 240.824 60.288C241.219 59.9467 241.416 59.472 241.416 58.864C241.416 58.2453 241.219 57.7653 240.824 57.424C240.429 57.0827 239.832 56.912 239.032 56.912H235.768L236.92 55.68V62.032ZM245.951 66V56.8H248.479V64.032H252.975V66H245.951ZM253.028 66L257.156 56.8H259.652L263.796 66H261.3L257.988 58.016H258.836L255.476 66H253.028ZM255.284 64.176L255.94 62.352H260.484L261.14 64.176H255.284ZM266.505 66V62.176L266.969 63.712L262.793 56.8H265.465L268.537 61.872H267.145L270.217 56.8H272.761L268.569 63.712L269.033 62.176V66H266.505ZM273.81 66V56.8H281.042V58.736H276.306V64.064H281.218V66H273.81ZM276.05 62.256V60.416H280.498V62.256H276.05ZM283.06 66V56.8H287.252C288.532 56.8 289.54 57.0987 290.276 57.696C291.023 58.2933 291.396 59.1253 291.396 60.192C291.396 60.8853 291.225 61.4827 290.884 61.984C290.543 62.4853 290.063 62.8693 289.444 63.136C288.836 63.4027 288.105 63.536 287.252 63.536H284.452L285.588 62.464V66H283.06ZM288.852 66L286.532 62.656H289.22L291.572 66H288.852ZM285.588 62.752L284.66 61.616H287.076C287.663 61.616 288.105 61.4933 288.404 61.248C288.703 60.992 288.852 60.64 288.852 60.192C288.852 59.7333 288.703 59.3813 288.404 59.136C288.105 58.8907 287.663 58.768 287.076 58.768H284.66L285.588 57.632V62.752ZM297.888 66V56.8H299.968L305.088 63.024H304.24V56.8H306.688V66H304.608L299.408 59.776H300.336V66H297.888ZM307.778 66L311.906 56.8H314.402L318.546 66H316.05L312.738 58.016H313.586L310.226 66H307.778ZM310.034 64.176L310.69 62.352H315.234L315.89 64.176H310.034ZM319.638 66V56.8H321.75L325.558 62.992H324.534L328.262 56.8H330.39L330.422 66H328.054L328.038 60.4H328.39L325.574 65.024H324.438L321.526 60.4H321.99V66H319.638ZM332.873 66V56.8H340.105V58.736H335.369V64.064H340.281V66H332.873ZM335.113 62.256V60.416H339.561V62.256H335.113ZM342.94 60.384C342.513 60.384 342.145 60.24 341.836 59.952C341.537 59.6533 341.388 59.2747 341.388 58.816C341.388 58.3573 341.537 57.9893 341.836 57.712C342.145 57.424 342.513 57.28 342.94 57.28C343.377 57.28 343.745 57.424 344.044 57.712C344.342 57.9893 344.492 58.3573 344.492 58.816C344.492 59.2747 344.342 59.6533 344.044 59.952C343.745 60.24 343.377 60.384 342.94 60.384ZM342.94 66.128C342.513 66.128 342.145 65.984 341.836 65.696C341.537 65.3973 341.388 65.0187 341.388 64.56C341.388 64.1013 341.537 63.7333 341.836 63.456C342.145 63.168 342.513 63.024 342.94 63.024C343.377 63.024 343.745 63.168 344.044 63.456C344.342 63.7333 344.492 64.1013 344.492 64.56C344.492 65.0187 344.342 65.3973 344.044 65.696C343.745 65.984 343.377 66.128 342.94 66.128Z" fill="#D29F78"/>
<rect x="431" y="102" width="28" height="2" transform="rotate(-90 431 102)" fill="#563E2B"/>
<rect x="233" y="102" width="28" height="2" transform="rotate(-90 233 102)" fill="#563E2B"/>
<rect x="433" y="74" width="200" height="2.00001" transform="rotate(180 433 74)" fill="#563E2B"/>
<rect x="433" y="104" width="200" height="2.00001" transform="rotate(180 433 104)" fill="#563E2B"/>
<path d="M82.4843 143V131.8H87.2683C88.8256 131.8 90.0363 132.163 90.9003 132.888C91.7643 133.603 92.1963 134.595 92.1963 135.864C92.1963 136.696 91.9989 137.416 91.6043 138.024C91.2096 138.621 90.6496 139.08 89.9243 139.4C89.1989 139.72 88.3349 139.88 87.3323 139.88H83.9243L85.0763 138.744V143H82.4843ZM89.6042 143L86.8043 138.936H89.5723L92.4043 143H89.6042ZM85.0763 139.032L83.9243 137.816H87.1883C87.9883 137.816 88.5856 137.645 88.9803 137.304C89.3749 136.952 89.5723 136.472 89.5723 135.864C89.5723 135.245 89.3749 134.765 88.9803 134.424C88.5856 134.083 87.9883 133.912 87.1883 133.912H83.9243L85.0763 132.68V139.032ZM94.2499 143V131.8H102.714V133.88H96.8259V140.92H102.922V143H94.2499ZM96.6339 138.328V136.312H102.026V138.328H96.6339ZM104.984 143V131.8H107.128L113.736 139.864H112.696V131.8H115.256V143H113.128L106.504 134.936H107.544V143H104.984ZM116.434 143L121.426 131.8H123.986L128.994 143H126.274L122.178 133.112H123.202L119.09 143H116.434ZM118.93 140.6L119.618 138.632H125.378L126.082 140.6H118.93ZM130.156 143V131.8H132.3L137.068 139.704H135.932L140.62 131.8H142.748L142.78 143H140.348L140.332 135.528H140.78L137.036 141.816H135.868L132.044 135.528H132.588V143H130.156ZM145.437 143V131.8H153.901V133.88H148.013V140.92H154.109V143H145.437ZM147.821 138.328V136.312H153.213V138.328H147.821Z" fill="#9F795B"/>
<rect x="215" y="155" width="36" height="3" transform="rotate(-90 215 155)" fill="#121212"/>
<rect x="18" y="155" width="36" height="3" transform="rotate(-90 18 155)" fill="#121212"/>
<rect x="218" y="119" width="200" height="3.00002" transform="rotate(180 218 119)" fill="#121212"/>
<rect x="218" y="158" width="200" height="3.00002" transform="rotate(180 218 158)" fill="#121212"/>
<rect x="215" y="122" width="194" height="2.99998" transform="rotate(-180 215 122)" fill="#563E2B"/>
<rect x="24" y="122" width="30" height="3" transform="rotate(90 24 122)" fill="#563E2B"/>
<rect x="21" y="152" width="194" height="3" fill="#2A1E14"/>
<rect x="212" y="153" width="31" height="3" transform="rotate(-90 212 153)" fill="#2A1E14"/>
<path d="M313.512 143L318.504 131.8H321.064L326.072 143H323.352L319.256 133.112H320.28L316.168 143H313.512ZM316.008 140.6L316.696 138.632H322.456L323.16 140.6H316.008ZM327.234 143V131.8H332.322C333.538 131.8 334.61 132.035 335.538 132.504C336.466 132.963 337.192 133.608 337.714 134.44C338.237 135.272 338.498 136.259 338.498 137.4C338.498 138.531 338.237 139.517 337.714 140.36C337.192 141.192 336.466 141.843 335.538 142.312C334.61 142.771 333.538 143 332.322 143H327.234ZM329.826 140.872H332.194C332.941 140.872 333.586 140.733 334.13 140.456C334.685 140.168 335.112 139.763 335.41 139.24C335.72 138.717 335.874 138.104 335.874 137.4C335.874 136.685 335.72 136.072 335.41 135.56C335.112 135.037 334.685 134.637 334.13 134.36C333.586 134.072 332.941 133.928 332.194 133.928H329.826V140.872ZM340.453 143V131.8H345.541C346.757 131.8 347.829 132.035 348.757 132.504C349.685 132.963 350.41 133.608 350.933 134.44C351.456 135.272 351.717 136.259 351.717 137.4C351.717 138.531 351.456 139.517 350.933 140.36C350.41 141.192 349.685 141.843 348.757 142.312C347.829 142.771 346.757 143 345.541 143H340.453ZM343.045 140.872H345.413C346.16 140.872 346.805 140.733 347.349 140.456C347.904 140.168 348.33 139.763 348.629 139.24C348.938 138.717 349.093 138.104 349.093 137.4C349.093 136.685 348.938 136.072 348.629 135.56C348.33 135.037 347.904 134.637 347.349 134.36C346.805 134.072 346.16 133.928 345.413 133.928H343.045V140.872Z" fill="#9F795B"/>
<rect x="430" y="155" width="36" height="3" transform="rotate(-90 430 155)" fill="#121212"/>
<rect x="233" y="155" width="36" height="3" transform="rotate(-90 233 155)" fill="#121212"/>
<rect x="433" y="119" width="200" height="3.00002" transform="rotate(180 433 119)" fill="#121212"/>
<rect x="433" y="158" width="200" height="3.00002" transform="rotate(180 433 158)" fill="#121212"/>
<rect x="430" y="122" width="194" height="2.99998" transform="rotate(-180 430 122)" fill="#563E2B"/>
<rect x="239" y="122" width="30" height="3" transform="rotate(90 239 122)" fill="#563E2B"/>
<rect x="236" y="152" width="194" height="3" fill="#2A1E14"/>
<rect x="427" y="153" width="31" height="3" transform="rotate(-90 427 153)" fill="#2A1E14"/>
</svg>
